<?xml version="1.0" standalone="no"?>
<!DOCTYPE svg PUBLIC "-//W3C//DTD SVG 1.1//EN" "http://www.w3.org/Graphics/SVG/1.1/DTD/svg11.dtd" >
<!--
2013-9-30: Created.
-->
<svg>
<metadata>
Created by iconfont
</metadata>
<defs>

<font id="iconfont" horiz-adv-x="1024" >
  <font-face
    font-family="iconfont"
    font-weight="500"
    font-stretch="normal"
    units-per-em="1024"
    ascent="896"
    descent="-128"
  />
    <missing-glyph />
    
    <glyph glyph-name="Buffer" unicode="&#58953;" d="M341.311717 761.717731c205.469654 185.446033 530.73972 177.823405 726.425104-16.724274a467.028199 467.028199 0 0 0 127.991894-441.42982l119.914183 118.662706a30.490513 30.490513 0 0 0 41.526259-0.910164 26.736084 26.736084 0 0 0-1.023935-39.250848l-166.90143-161.09913a30.490513 30.490513 0 0 0-41.526259 1.023935l-157.686013 169.518153a26.736084 26.736084 0 0 0 1.023935 39.364618 30.490513 30.490513 0 0 0 41.526259-0.910165L1137.705723 312.323971a413.669801 413.669801 0 0 1-112.632867 394.215033C851.914045 878.901421 563.846956 885.613884 381.814041 721.442949M1023.935151 6.281131c-205.469654-185.446033-530.73972-177.823405-726.425104 16.724274a467.028199 467.028199 0 0 0-127.991894 441.429821L49.60397 345.772519a30.490513 30.490513 0 0 0-41.526259 0.910164 26.736084 26.736084 0 0 0 1.023935 39.250848l166.901429 161.09913a30.490513 30.490513 0 0 0 41.526259-1.023935l157.686013-169.518153a26.736084 26.736084 0 0 0-1.023935-39.364618 30.490513 30.490513 0 0 0-41.526259 0.910165L227.541145 455.674892a413.669801 413.669801 0 0 1 112.632866-394.215033c173.272582-172.362417 461.339671-178.96111 643.372587-14.790175"  horiz-adv-x="1365" />

    
    <glyph glyph-name="Avatar" unicode="&#58954;" d="M512-128A512 512 0 1 0 512 896a512 512 0 0 0 0-1024zM512 840.64A456.64 456.64 0 0 1 55.36 384a454.4 454.4 0 0 1 111.68-298.624c44.8 102.656 159.04 178.752 297.6 193.216l3.456 0.512 43.904 2.56c29.248 0 43.904-2.56 43.904-2.56l3.328-0.512c138.368-14.4 252.352-90.24 297.344-192.512 0.064-0.384-0.128-0.832-0.064-1.216a459.008 459.008 0 0 1 0.448 0.512c-0.064 0.256-0.256 0.512-0.384 0.704 7.872 9.088 15.808 18.048 22.976 27.712A453.952 453.952 0 0 1 968.64 384 456.64 456.64 0 0 1 512 840.64z m0-500.48a160.896 160.896 0 1 0 0 321.792 160.896 160.896 0 0 0 0-321.856zM512 281.6z m0 0z"  horiz-adv-x="1024" />

    
    <glyph glyph-name="Data" unicode="&#58955;" d="M580.010667 445.525333V896c445.013333-31.744 443.648-450.474667 443.648-450.474667H580.010667z m315.733333-118.954666C895.744 75.52 695.466667-128 448.085333-128 200.789333-128 0.341333 75.52 0.341333 326.570667c0 251.136 200.533333 454.656 447.744 454.656v-454.656h447.658667z"  horiz-adv-x="1024" />

    
    <glyph glyph-name="Drop-down" unicode="&#58956;" d="M1429.942857 697.636571l-624.64-692.955428a97.718857 97.718857 0 0 0-147.602286 0L33.206857 697.636571A118.784 118.784 0 0 0 9.069714 820.077714a116.150857 116.150857 0 0 0 98.011429 75.337143h1248.548571a115.565714 115.565714 0 0 0 98.304-75.190857 118.491429 118.491429 0 0 0-23.990857-122.587429z"  horiz-adv-x="1462" />

    
    <glyph glyph-name="Guanbi" unicode="&#58957;" d="M79.017871 808.341308a51.144253 51.144253 0 0 0 72.113396 72.624839L575.372844 458.77034 995.778601 880.838286a51.144253 51.144253 0 1 0 72.496979-72.369117l-420.405758-421.940086 423.857995-421.940085a51.144253 51.144253 0 1 0-72.113397-72.624839L575.628565 314.159966 151.259128-111.87166a50.888532 50.888532 0 0 0-72.241257-0.127861 51.144253 51.144253 0 0 0-0.127861 72.369118l424.241577 425.775904L79.017871 808.341308z"  horiz-adv-x="1150" />

    
    <glyph glyph-name="Close" unicode="&#58958;" d="M2040.938835 806.457546a60.925076 60.925076 0 0 1-32.049662 83.247204 60.925076 60.925076 0 0 1-83.247204-32.049661c-5.119754-10.239509-66.45441-141.714798-223.630866-263.667344a67.273571 67.273571 0 0 1-22.526918-16.895189C1538.793338 474.799866 1328.064253 383.975425 1022.9269 383.975425c-303.908612 0-514.330512 90.312465-655.123755 192.09318a68.809497 68.809497 0 0 1-23.960449 18.021535C186.563845 715.735501 125.229189 847.517975 120.109435 857.655089 107.310049 889.70475 68.911892 902.504136 36.964626 889.70475c-32.049662-12.799386-44.849047-51.197543-32.049662-83.247204 4.914964-11.46825 70.447819-156.05011 236.737437-294.078684l-115.092076-317.424764a65.328064 65.328064 0 0 1 38.398157-83.144809 54.474185 54.474185 0 0 1 22.424524-3.276643c25.598771 0 51.197543 16.076028 60.82268 41.6748l102.70227 283.12241c97.070541-61.129866 218.101531-114.682495 366.983985-146.629762l-56.726877-318.960689a62.461002 62.461002 0 0 1 51.197543-73.724462h9.625138a68.195127 68.195127 0 0 1 63.996928 51.197543l57.136457 320.906196c56.419692-6.655681 116.320817-10.239509 179.80577-10.239508 63.689743 0 123.693263 3.583828 180.317744 10.239508l56.522087-317.629553a65.123274 65.123274 0 0 1 63.996928-54.371791h12.901781a62.461002 62.461002 0 0 1 51.197543 73.622067l-59.081964 319.16548c148.472873 31.947267 269.299074 85.499896 366.062429 146.424971l102.804665-283.12241c9.522743-25.598771 35.121514-41.6748 60.82268-41.6748 6.348495 0 15.973633 3.276643 22.322129 3.276643 32.049662 12.799386 51.197543 51.197543 38.500552 83.144809l-115.194471 317.424764c166.289618 138.028575 231.924868 282.610435 236.839832 294.078684z"  horiz-adv-x="2047" />

    
    <glyph glyph-name="Find" unicode="&#58959;" d="M1008.01159-39.936385l-176.319229 176.319228a463.677971 463.677971 0 0 1 102.91155 292.286722 464.637967 464.637967 0 0 1-136.895401 330.558553A463.805971 463.805971 0 0 1 467.213956 895.99552C342.286503 895.99552 224.911016 847.355733 136.655402 759.100119c-182.207203-182.143203-182.207203-478.717906 0-660.925109A464.317969 464.317969 0 0 1 467.213956-38.720391a463.677971 463.677971 0 0 1 292.286721 102.91155l176.319229-176.319228a50.943777 50.943777 0 1 1 72.127684 72.127684zM208.911086 170.238695a365.6944 365.6944 0 0 0 0 516.66974A364.158407 364.158407 0 0 0 467.213956 793.851967c93.439591 0 187.135181-35.647844 258.36687-106.879533a365.6944 365.6944 0 0 0 0-516.669739 365.6944 365.6944 0 0 0-516.66974 0z"  horiz-adv-x="1024" />

    
    <glyph glyph-name="Message-Center" unicode="&#58960;" d="M635.477333 23.04c0-78.165333-43.52-150.357333-140.288-150.357333-93.44 0-140.288 72.192-140.288 150.442666h280.576z m249.258667 418.133333v-111.189333c0-18.090667 3.157333-36.096 6.144-54.186667 3.072-21.077333 6.144-39.082667 12.458667-48.128v-2.986666c43.52-5.888 77.909333-39.082667 77.909333-81.322667 0-45.056-40.533333-87.125333-87.296-87.125333H130.56C83.797333 56.234667 43.264 98.304 43.264 143.36c0 42.154667 34.304 75.264 77.909333 81.322667v2.986666c3.157333 12.032 9.386667 27.136 12.458667 48.128 3.072 18.005333 3.072 36.096 6.144 54.186667V441.173333c0 150.442667 99.754667 285.866667 236.8 342.954667C382.805333 847.36 442.197333 895.488 510.634667 895.488c68.522667 0 127.744-48.128 134.058666-111.274667 143.36-54.186667 239.957333-189.44 240.042667-343.04z"  horiz-adv-x="1024" />

    
    <glyph glyph-name="Order" unicode="&#58961;" d="M378.171077 830.936615a32.531692 32.531692 0 1 0 0 64.984616h272.699077a32.531692 32.531692 0 1 0 0-64.984616H378.092308zM874.732308 879.458462c60.337231 0 109.174154-48.443077 109.174154-107.913847v-758.941538a108.701538 108.701538 0 0 0-109.174154-108.465231h-725.464616A108.701538 108.701538 0 0 0 40.172308 12.524308V770.993231C40.172308 830.936615 89.009231 879.379692 149.267692 879.379692h122.801231a73.964308 73.964308 0 0 1-3.072-21.42523c0-44.977231 36.706462-81.447385 81.998769-81.447385h327.049846c45.213538 0 81.92 36.470154 81.92 81.447385A76.406154 76.406154 0 0 1 756.972308 879.379692h117.76zM269.548308 587.224615a43.638154 43.638154 0 0 1-43.795693-43.480615c0-24.024615 19.692308-43.480615 43.795693-43.480615h496.009846a43.638154 43.638154 0 0 1 43.795692 43.480615 43.638154 43.638154 0 0 1-43.795692 43.480615H269.548308z m501.523692-422.754461a42.929231 42.929231 0 0 1 43.323077 43.480615 43.638154 43.638154 0 0 1-43.795692 43.480616H274.510769a43.638154 43.638154 0 0 1-43.716923-43.480616c0-23.945846 19.613538-43.480615 43.716923-43.480615H771.150769z m0 162.894769a42.535385 42.535385 0 0 1 43.323077 43.480615 43.638154 43.638154 0 0 1-43.795692 43.480616H274.510769a43.638154 43.638154 0 0 1-43.716923-43.480616c0-24.024615 19.613538-43.480615 43.716923-43.480615H771.150769z"  horiz-adv-x="1024" />

    
    <glyph glyph-name="Oil-Card" unicode="&#58962;" d="M1285.802667-126.520889H76.686222a77.824 77.824 0 0 0-76.686222 79.644445v589.368888h1362.488889v-589.368888c0-44.259556-34.133333-79.644444-76.686222-79.644445z m-831.715556 235.747556H150.528a38.343111 38.343111 0 0 1-36.864-38.229334c0-23.665778 17.066667-41.301333 36.864-41.301333h303.786667a38.343111 38.343111 0 0 1 36.864 38.343111c0 23.552-17.066667 41.187556-36.864 41.187556zM0 816.469333C0 860.615111 34.133333 896 76.686222 896h1211.960889c42.666667 0 76.686222-35.271111 76.686222-79.644444v-117.76H0V816.355556z"  horiz-adv-x="1365" />

    
    <glyph glyph-name="Management" unicode="&#58963;" d="M29.602909 427.101091H1089.163636c20.107636 0 31.557818-17.035636 25.786182-36.864l-40.029091-450.56c-5.771636-19.921455-25.786182-36.957091-45.893818-36.957091H92.625455c-20.014545 0-40.029091 17.035636-45.800728 36.864l-40.029091 450.56c-8.657455 19.921455 2.792727 36.957091 22.807273 36.957091z m211.968 99.048727v39.749818a19.549091 19.549091 0 0 0 20.107636 19.828364h598.574546a19.549091 19.549091 0 0 0 20.014545-19.828364v-39.749818a19.549091 19.549091 0 0 0-20.107636-19.921454H261.585455a19.549091 19.549091 0 0 0-20.014546 19.921454zM934.632727 821.434182v-0.093091H178.734545c-11.450182 0-20.107636-8.564364-22.900363-19.921455L89.925818 517.585455c-2.792727-11.357091-11.450182-19.828364-22.900363-19.828364H15.453091a15.453091 15.453091 0 0 0-14.336 19.828364L81.361455 875.52C81.361455 886.690909 92.811636 895.255273 104.261818 895.255273h907.636364c11.543273 0 20.107636-8.471273 22.993454-19.828364l80.244364-360.541091c2.792727-8.471273-2.885818-17.035636-14.336-17.035636h-54.458182c-8.564364 0-20.014545 8.564364-22.900363 19.921454l-65.908364 283.741091C954.740364 812.962909 946.082909 821.527273 934.632727 821.527273zM241.570909 682.263273v42.635636a19.549091 19.549091 0 0 0 20.107636 19.828364h598.574546a19.549091 19.549091 0 0 0 20.014545-19.828364v-42.635636a19.549091 19.549091 0 0 0-20.107636-19.828364H261.585455a19.549091 19.549091 0 0 0-20.014546 19.828364z"  horiz-adv-x="1117" />

    
    <glyph glyph-name="Open" unicode="&#58964;" d="M639.232-114.56C286.08-114.56 0 270.72 0 390.848 0 549.376 286.144 896 639.232 896c353.088 0 639.232-384.192 639.232-505.216 0-126.464-286.144-505.28-639.232-505.28z m0 930.624c-308.928 0-559.36-293.12-559.36-425.28 0-100.16 250.432-425.408 559.36-425.408s559.36 330.368 559.36 425.408c0 97.536-250.432 425.28-559.36 425.28z m0-665.088a239.744 239.744 0 1 0 0 479.488 239.744 239.744 0 0 0 0-479.488z m0 399.616a159.808 159.808 0 1 1-0.064-319.616 159.808 159.808 0 0 1 0 319.616z"  horiz-adv-x="1280" />

    
    <glyph glyph-name="Prompt" unicode="&#58965;" d="M512 896a512 512 0 1 1 0-1024A512 512 0 1 1 512 896z m32-800a32 32 0 1 0-64 0 32 32 0 0 0 64 0z m0 128a32 32 0 1 0-64 0v448a32 32 0 1 0 64 0v-448z"  horiz-adv-x="1024" />

    
    <glyph glyph-name="Storage" unicode="&#58966;" d="M0-128h1024v129.962667H0V-128z m257.450667 251.904L1.450667 384l256 260.096v-520.192z m116.394666 50.090667H1024V304.042667H373.76v-130.048zM0 766.037333h1024V896H0v-129.962667zM373.76 471.04H1024V601.088H373.76v-129.962667z"  horiz-adv-x="1024" />

    
    <glyph glyph-name="Upload" unicode="&#58967;" d="M548.571429 765.732571V188.708571h-73.142858V765.220571L280.283429 591.579429l-48.566858 54.637714L512.438857 896l279.917714-249.782857-48.713142-54.564572L548.571429 765.732571zM950.857143 408.137143h73.142857v-475.428572H0v475.428572h73.142857v-402.285714h877.714286v402.285714z"  horiz-adv-x="1024" />

    
    <glyph glyph-name="Settlement" unicode="&#58968;" d="M844.373333 896h-664.746666A179.797333 179.797333 0 0 1 0 716.458667v-663.808c0-98.986667 80.554667-179.456 179.626667-179.456h664.576A179.712 179.712 0 0 1 1024 52.650667V716.458667A179.626667 179.626667 0 0 1 844.373333 896zM423.936 155.562667a40.533333 40.533333 0 1 0-57.514667-57.344l-45.653333 45.738666-45.738667-45.738666a40.618667 40.618667 0 0 0-57.514666 0 40.533333 40.533333 0 0 0 0 57.344l45.738666 45.653333-45.738666 45.738667a40.533333 40.533333 0 0 0 57.344 57.344l45.824-45.738667 45.738666 45.738667a40.533333 40.533333 0 0 0 57.344-57.258667l-45.653333-45.824 45.824-45.653333z m2.048 377.685333h-64.768v-64.682667a40.533333 40.533333 0 1 0-81.152 0v64.682667h-64.853333a40.533333 40.533333 0 1 0 0 81.066667h64.853333v64.682666a40.533333 40.533333 0 1 0 81.152 0v-64.682666h64.853333a40.533333 40.533333 0 1 0 0-81.066667z m387.413333-446.464H602.794667a40.533333 40.533333 0 1 0 0 81.066667h210.602666a40.533333 40.533333 0 1 0 0-81.066667z m0 133.802667H602.794667a40.533333 40.533333 0 1 0 0 81.066666h210.602666a40.533333 40.533333 0 1 0 0-81.066666z m0 312.661333H602.794667a40.533333 40.533333 0 1 0 0 81.066667h210.602666a40.533333 40.533333 0 1 0 0-81.066667z"  horiz-adv-x="1024" />

    
    <glyph glyph-name="logo" unicode="&#58969;" d="M483.879385 183.374769C483.879385 229.612308 336.502154 265.452308 336.502154 265.452308v-367.616s147.377231 24.103385 147.377231 65.693538v7.089231c38.124308-21.937231 74.752-43.126154 97.949538-56.516923 36.155077-20.834462 130.56 94.838154 130.56 94.838154L483.879385 140.8V183.374769zM707.584 242.412308c-15.793231 9.216-29.577846 17.092923-36.824615 21.346461-40.054154 23.079385-144.777846-86.646154-144.777847-86.646154l181.563077-104.920615h0.07877l136.664615-78.887385s52.854154 139.657846 16.817231 160.492308l-6.144 3.544615 97.910154 56.438154c36.036923 20.873846-16.896 160.531692-16.896 160.531693l-228.391385-131.899077M697.186462 296.920615l181.563076 104.802462 136.78277 78.966154s-94.601846 115.672615-130.599385 94.838154l-6.222769-3.544616v113.033846c0 41.747692-147.377231 65.693538-147.377231 65.693539v-263.758769c-15.753846-9.176615-29.538462-17.092923-36.824615-21.307077-40.054154-23.158154 2.678154-168.723692 2.678154-168.723693M531.495385 587.145846c0-46.158769 147.456-82.038154 147.456-82.038154V872.723692s-147.337846-24.024615-147.337847-65.693538v-7.049846C493.568 821.917538 456.861538 843.067077 433.664 856.536615 397.627077 877.292308 303.104 761.619692 303.104 761.619692l228.391385-131.899077v-42.574769zM307.948308 528.108308c15.753846-9.137231 29.538462-17.092923 36.903384-21.267693 39.975385-23.158154 144.620308 86.567385 144.620308 86.567385l-181.563077 104.920615-136.664615 78.92677S118.232615 637.636923 154.427077 616.802462c1.851077-1.181538 4.096-2.441846 6.065231-3.544616L62.621538 556.780308c-36.076308-20.873846 16.817231-160.571077 16.817231-160.571077l228.509539 131.938461M318.345846 473.639385L0 289.870769s94.523077-115.712 130.56-94.838154c2.048 1.102769 4.174769 2.323692 6.183385 3.544616v-113.033846c0-41.708308 147.456-65.772308 147.456-65.772308v263.876923l36.864 21.267692C360.999385 327.995077 318.345846 473.639385 318.345846 473.639385"  horiz-adv-x="1024" />

    
    <glyph glyph-name="Verification-code" unicode="&#58970;" d="M556.799412 6.206239v-73.791032a22.399706 22.399706 0 0 0-44.799412 0v150.910019l-9.599874-0.127998a406.394666 406.394666 0 1 0 54.399286 3.583953v-35.83953H671.9979a22.399706 22.399706 0 0 0 0-44.799412H556.799412zM502.400126 127.99664a361.595254 361.595254 0 1 1 0 723.190508 361.595254 361.595254 0 0 1 0-723.190508z m0 211.197228a150.398026 150.398026 0 1 0 0 300.796052 150.398026 150.398026 0 0 0 0-300.796052z m0 44.799412a105.598614 105.598614 0 1 1 0 211.197228 105.598614 105.598614 0 0 1 0-211.197228z"  horiz-adv-x="1024" />

    
    <glyph glyph-name="Workbench" unicode="&#58971;" d="M921.088 896H97.536C43.349333 896 0 851.968 0 797.013333v-582.826666c0-55.04 43.349333-98.986667 97.536-98.986667h319.658667v-126.549333H270.933333c-10.837333 0-16.213333-5.461333-16.213333-16.469334v-33.024c0-11.008 5.376-16.469333 16.213333-16.469333h476.757334c10.837333 0 16.213333 5.461333 16.213333 16.469333v33.024c0 11.008-5.376 16.469333-16.213333 16.469334h-140.8V115.2h319.573333c54.186667 0 97.536 44.032 97.536 98.986667V797.013333C1018.624 851.968 975.274667 896 921.088 896z m-666.453333-549.888c0-16.469333-16.213333-33.024-32.426667-33.024-16.298667 0-32.597333 16.554667-32.597333 33.024V478.122667c0 16.469333 16.213333 32.938667 32.512 32.938666 16.213333 0 32.512-16.469333 32.512-32.938666v-132.010667z m189.610666 0c0-16.469333-16.213333-33.024-32.426666-33.024-16.298667 0-32.597333 16.554667-32.597334 33.024V571.562667c0 16.469333 16.213333 33.024 32.512 33.024 16.213333 0 32.512-16.554667 32.512-33.024v-225.450667z m195.072 0c0-16.469333-16.213333-33.024-32.426666-33.024-16.298667 0-32.597333 16.554667-32.597334 33.024V511.061333c0 16.469333 16.213333 33.024 32.512 33.024 16.213333 0 32.512-16.554667 32.512-33.024v-164.949333z m189.610667 0c0-16.469333-16.213333-33.024-32.426667-33.024-16.298667 0-32.597333 16.554667-32.597333 33.024V670.549333c0 16.469333 16.213333 33.024 32.512 33.024 16.213333 0 32.512-16.554667 32.512-33.024v-324.437333z"  horiz-adv-x="1024" />

    
    <glyph glyph-name="Username" unicode="&#58972;" d="M993.751242 70.176812a494.042573 494.042573 0 0 1-84.718369 144.724369A515.819495 515.819495 0 0 1 681.160259 370.343344c14.472437 9.762068 28.330478 20.889461 41.096259 33.450444a282.622116 282.622116 0 0 1 0 407.754082A298.732942 298.732942 0 0 1 512.542716 895.993173a299.006007 299.006007 0 0 1-209.713802-84.445303 282.622116 282.622116 0 0 1 0-407.754082c12.697515-12.424451 26.48729-23.551843 40.959727-33.313911a516.160826 516.160826 0 0 1-228.009146-154.9643A495.612696 495.612696 0 0 1 30.788061 70.654676 485.236232 485.236232 0 0 1 0-99.669522a26.623823 26.623823 0 0 1 26.896887-26.214225 26.623823 26.623823 0 0 1 26.896888 26.214225c0 208.280211 151.346191 391.02886 360.240798 435.333631a305.149966 305.149966 0 0 1 196.333625 0c208.621543-44.441304 359.762935-227.326484 359.762934-435.333631a26.623823 26.623823 0 0 1 26.965154-26.214225 26.623823 26.623823 0 0 1 26.896887 26.214225 474.791501 474.791501 0 0 1-30.241931 169.846334zM269.924601 607.636696c0 130.183665 108.816341 235.928027 242.618115 235.928027 133.801775 0 242.618116-105.880894 242.618116-235.928027 0-129.978867-108.816341-235.928027-242.618116-235.928027-133.801775 0-242.618116 105.812628-242.618115 235.928027z"  horiz-adv-x="1024" />

    
    <glyph glyph-name="Password" unicode="&#58973;" d="M495.552 895.616C351.36 895.616 242.56 780.736 242.56 628.416v-93.888h-8.192c-75.84 0-137.6-63.36-137.6-141.312v-361.088c0-77.888 61.76-141.312 137.6-141.312h524.544c75.84 0 137.536 63.424 137.536 141.312V393.216c0 77.888-61.696 141.312-137.536 141.312h-4.48c-1.216 0.448-2.432 0.576-3.712 0.768V628.48c0 152.256-109.632 267.136-255.168 267.136z m0-41.92c123.584 0 213.376-94.72 213.376-225.28v-92.544H284.416V628.48c0 130.56 88.768 225.28 211.2 225.28z m359.04-460.48v-361.088c0-54.784-42.88-99.456-95.616-99.456H234.368c-52.736 0-95.68 44.672-95.68 99.456V393.216c0 54.784 42.88 99.392 95.68 99.392h50.048V494.08h424.448v-1.408h50.112c52.736 0 95.68-44.608 95.68-99.392zM492.032 337.088c-33.536 0-60.672-28.032-60.672-62.72 0-23.104 12.224-43.392 30.336-54.208v-102.4c0-17.28 13.568-31.36 30.336-31.36s30.4 14.08 30.4 31.36v102.4a63.04 63.04 0 0 1 30.272 54.208c0 34.624-27.2 62.72-60.672 62.72z"  horiz-adv-x="1024" />

    
    <glyph glyph-name="System" unicode="&#58974;" d="M1020.992895 245.246771c1.449668-10.659321 1.023295-21.48919-1.108569-32.063237a191.953046 191.953046 0 0 0-29.675549-72.48338 67.366906 67.366906 0 0 0-23.876878-22.000838 52.87023 52.87023 0 0 0-23.024133-6.566141 63.785375 63.785375 0 0 0-22.000837 4.349003 239.365704 239.365704 0 0 1-27.543685 5.969219 127.059102 127.059102 0 0 1-33.427629 1.193844 161.510026 161.510026 0 0 1-34.024552-7.163063 66.514161 66.514161 0 0 1-28.993352-18.67513 108.383972 108.383972 0 0 1-30.698843-62.591531c-3.155159-22.768309 0-45.877716 9.294927-66.940533a41.784537 41.784537 0 0 0-3.240433-44.001676 81.43721 81.43721 0 0 0-20.721719-18.163482c-9.977124-6.480867-20.465896-12.194263-31.295766-17.054913-11.426792-5.116474-23.450505-9.209653-35.644768-12.023714a144.96676 144.96676 0 0 0-33.001257-4.349002 27.970057 27.970057 0 0 0-18.589855 8.015809 41.358164 41.358164 0 0 0-11.938439 16.457991h-1.193844a136.098206 136.098206 0 0 1-41.10234 58.839449 101.050359 101.050359 0 0 1-67.025808 24.388526c-24.729624 0-48.606502-8.698006-67.366906-24.729624a133.881067 133.881067 0 0 1-42.296185-57.645606 37.094436 37.094436 0 0 0-16.457991-19.272051 48.9476 48.9476 0 0 0-23.962152-6.054494 125.012512 125.012512 0 0 0-34.536199 5.542846 329.500919 329.500919 0 0 0-39.055751 13.643931 185.13108 185.13108 0 0 0-34.621473 19.272051 94.313669 94.313669 0 0 0-23.024133 22.000838 33.25708 33.25708 0 0 0-6.054494 18.078208 66.343612 66.343612 0 0 0 7.930535 29.163901 110.004189 110.004189 0 0 1 9.380202 57.730881 100.623987 100.623987 0 0 1-27.970058 59.948019 71.886458 71.886458 0 0 1-36.923886 21.233366 153.664766 153.664766 0 0 1-41.699262 3.837356c-15.946344-0.852746-31.636864-3.666806-46.901011-8.612731a45.195519 45.195519 0 0 0-30.613569 2.217138 48.00958 48.00958 0 0 0-22.427211 20.210072 228.535834 228.535834 0 0 0-31.551589 74.785794 89.964666 89.964666 0 0 0-2.217138 33.512904c2.302413 16.031618 9.636026 26.349841 22.086112 30.784118 22.938858 9.550751 43.234204 24.388526 59.180548 43.490028 16.884364 18.334031 26.349841 42.466733 26.435115 67.537455a95.507513 95.507513 0 0 1-26.435115 67.025808 163.215517 163.215517 0 0 1-59.265822 41.528713 30.016647 30.016647 0 0 0-16.457991 16.031619A56.110664 56.110664 0 0 0 0.768 537.567979a133.028321 133.028321 0 0 0 4.434277 32.063237 216.51212 216.51212 0 0 0 27.970058 64.297022 67.196357 67.196357 0 0 0 20.295346 20.210072 25.155997 25.155997 0 0 0 17.054913 4.263728c6.139769-0.852746 12.194263-2.217139 18.163482-4.263728 21.745014-8.612731 45.366069-11.426792 68.560751-8.015809 23.876878 3.410983 45.962991 14.326127 63.103178 31.295765a76.661834 76.661834 0 0 1 19.101502 32.404335c7.418887 23.279956 10.232948 47.753756 8.015809 72.142282a478.646133 478.646133 0 0 1-2.728786 22.000837 115.291212 115.291212 0 0 0-4.263728 15.093598 24.047427 24.047427 0 0 0 1.705491 15.349422c5.116474 11.085693 13.302832 20.465896 23.53578 26.946762A184.19306 184.19306 0 0 0 302.63996 880.54228c12.364812 4.945925 25.241271 8.78328 38.373554 11.59734 9.7213 2.217139 19.61315 3.410983 29.590274 3.837356 8.527456 0.341098 16.713815-3.069884 22.427211-9.380202 5.116474-5.542847 9.039104-12.108988 11.512066-19.272052 8.527456-20.465896 22.171387-38.373554 39.567398-52.188034 18.248757-14.923049 41.187615-22.938858 64.80867-22.512485 24.303251-0.341098 48.180129 7.163063 67.963828 21.489191 19.101503 13.388107 33.683453 32.404335 41.613987 54.490447a74.444695 74.444695 0 0 0 13.643931 17.907658 27.117312 27.117312 0 0 0 19.186777 9.380202c11.256243 0 22.512485-1.534942 33.512904-4.263728 12.194263-2.98461 24.132702-7.077789 35.730043-12.108988 11.597341-5.116474 22.427211-11.682615 32.233785-19.783699 9.124378-7.418887 17.054913-16.372716 23.194682-26.435115a24.900173 24.900173 0 0 0 3.410983-19.186777 63.103178 63.103178 0 0 0-4.434278-14.837775c-9.380202-20.977543-12.450086-44.342774-8.698005-67.025808 3.666806-23.450505 14.837774-45.02497 31.892687-61.568236 17.225462-17.396011 40.334869-27.799508 64.808669-29.078626 24.388526-2.04659 48.9476 2.302413 71.204262 12.620635a36.497514 36.497514 0 0 0 42.807831-5.542846c12.876459-13.302832 22.768309-29.163901 28.993353-46.645188 8.356907-20.295346 14.070303-41.528713 17.054913-63.188452a38.714652 38.714652 0 0 0-5.96922-29.163901 41.443439 41.443439 0 0 0-16.884364-14.070304 128.764593 128.764593 0 0 1-58.157253-42.296184 107.190128 107.190128 0 0 1-23.876878-68.646025 108.298697 108.298697 0 0 1 20.039522-65.235042c13.388107-18.504581 32.063236-32.404335 53.552427-40.079045 4.604827-2.558237 9.039104-5.457572 13.217558-8.698006 8.015809-6.480867 13.729205-15.349422 16.457991-25.326546l-0.341098-0.085274z m-510.112447-98.918496a236.210545 236.210545 0 0 1 169.099462 70.436791 240.644822 240.644822 0 0 1 50.99419 262.134013 240.730097 240.730097 0 0 1-50.99419 75.809088 239.536253 239.536253 0 0 1-169.355286 69.754594 231.349895 231.349895 0 0 1-92.693452-18.760404c-56.963409-24.217976-102.329478-69.754594-126.46218-126.888553a240.644822 240.644822 0 0 1 126.718003-313.810399c29.249176-12.535361 60.886039-18.930953 92.693453-18.67513z"  horiz-adv-x="1024" />

    
    <glyph glyph-name="Fuelcosts" unicode="&#58975;" d="M679.570286 896l270.774857-244.224v-606.939429c0-62.829714-64.146286-118.637714-135.314286-118.637714H209.261714C130.925714-73.874286 73.874286-24.941714 73.874286 44.836571V777.362286C73.947429 840.192 138.093714 896 209.261714 896h470.308572z m28.525714-732.598857c21.357714 0 35.620571 13.897143 42.788571 27.940571 0 13.897143-14.262857 27.867429-35.693714 27.867429H309.101714c-21.357714 0-35.620571-13.897143-35.620571-27.867429s14.262857-27.940571 35.620571-27.940571H708.022857z m0 181.394286c21.357714 0 35.620571 13.970286 42.788571 34.889142 0 13.970286-14.262857 27.940571-35.693714 27.940572H309.101714c-21.357714 0-35.620571-13.970286-35.620571-34.889143 0-13.897143 14.262857-27.940571 35.620571-27.940571H708.022857z m35.620571 306.980571h135.387429L679.570286 833.170286V714.605714c0-34.889143 28.525714-62.829714 64.146285-62.829714z"  horiz-adv-x="1024" />

    


  </font>
</defs>
</svg>
